<?xml version="1.0" encoding="utf-8"?>
<!-- Generator: Adobe Illustrator 19.0.0, SVG Export Plug-In . SVG Version: 6.00 Build 0)  -->
<svg version="1.1" id="Слой_1" xmlns="http://www.w3.org/2000/svg" xmlns:xlink="http://www.w3.org/1999/xlink" x="0px" y="0px"
	 viewBox="0 0 1980 1020" style="enable-background:new 0 0 1980 1020;" xml:space="preserve">
<style type="text/css">
	.st0{fill:#FFFFFF;stroke:#3A3A3A;stroke-miterlimit:10;}
</style>
<line id="XMLID_4_" class="st0" x1="353.5" y1="0" x2="353.5" y2="367"/>
<g id="XMLID_17_">
	<g id="XMLID_18_">
		<polygon id="XMLID_26_" class="st0" points="327.6,409.6 325.9,421.3 310.7,424.9 317.5,408.9 		"/>
		<path id="XMLID_25_" class="st0" d="M370.9,402.8l-54.1,11.3l16.6-33.2C333.3,380.9,358.7,389.6,370.9,402.8z"/>
		<path id="XMLID_24_" class="st0" d="M321.1,343.8c-0.3,0-18.8-4.4-18.8-4.4l31,41.6L321.1,343.8z"/>
		<path id="XMLID_23_" class="st0" d="M381.6,384.8c0,0,10.2,15.6,9.3,15c-0.9-0.5-14.7-6.8-15-7.4
			C375.5,391.8,381.6,384.8,381.6,384.8z"/>
		<path id="XMLID_22_" class="st0" d="M383.1,383.3c0,0-11.3,18.3-12.2,19.5c-5.2-7.9-9.8-23.2-9.8-23.2L383.1,383.3z"/>
		<polygon id="XMLID_21_" class="st0" points="370.9,402.8 346.4,343.4 333.3,380.9 		"/>
		<polygon id="XMLID_20_" class="st0" points="346.4,343.4 308.5,323.7 333.3,380.9 		"/>
		<path id="XMLID_19_" class="st0" d="M331.3,384.5c-0.4,1.3-11,34.8-11,34.8l-16,4.6C309.4,414.1,331.3,384.5,331.3,384.5z"/>
	</g>
</g>
<line id="XMLID_3_" class="st0" x1="291.5" y1="0" x2="291.5" y2="286"/>
<line id="XMLID_5_" class="st0" x1="417.5" y1="0" x2="417.5" y2="286"/>
<g id="XMLID_15_">
	<g id="XMLID_16_">
		<polygon id="XMLID_13_" class="st0" points="259.5,346.2 259.1,362.7 236.9,370.2 244.2,346.9 		"/>
		<path id="XMLID_12_" class="st0" d="M323.5,329.7L244,354.2l18.9-48.8C262.9,305.5,302.8,313.4,323.5,329.7z"/>
		<path id="XMLID_11_" class="st0" d="M237.7,255.8c-0.5,0-29.2-3.1-29.2-3.1l54.4,52.7L237.7,255.8z"/>
		<path id="XMLID_10_" class="st0" d="M336.4,302.9c0,0,18.2,20,16.7,19.4c-1.5-0.6-23.4-7.1-24-7.9
			C328.5,313.6,336.4,302.9,336.4,302.9z"/>
		<path id="XMLID_9_" class="st0" d="M338.4,300.6c0,0-13.6,27.2-14.9,29.1c-9.4-10.1-18.9-30.6-18.9-30.6L338.4,300.6z"/>
		<polygon id="XMLID_8_" class="st0" points="323.5,329.7 275.8,251.2 262.9,305.5 		"/>
		<polygon id="XMLID_7_" class="st0" points="275.8,251.2 215,230 262.9,305.5 		"/>
		<path id="XMLID_6_" class="st0" d="M260.5,310.8c-0.4,1.9-10.3,50.1-10.3,50.1l-23.3,9C232.9,355.5,260.5,310.8,260.5,310.8z"/>
	</g>
</g>
<g id="XMLID_27_">
	<g id="XMLID_28_">
		<polygon id="XMLID_36_" class="st0" points="394.7,347.8 392.7,361.8 374.5,366.1 382.6,347 		"/>
		<path id="XMLID_35_" class="st0" d="M446.6,339.7l-64.9,13.6l19.8-39.8C401.6,313.4,432.1,323.9,446.6,339.7z"/>
		<path id="XMLID_34_" class="st0" d="M386.9,268.9c-0.4-0.1-22.6-5.3-22.6-5.3l37.2,49.9L386.9,268.9z"/>
		<path id="XMLID_33_" class="st0" d="M459.5,318c0,0,12.2,18.7,11.1,18c-1.1-0.6-17.7-8.2-18-8.9C452.2,326.5,459.5,318,459.5,318z
			"/>
		<path id="XMLID_32_" class="st0" d="M461.3,316.3c0,0-13.5,21.9-14.7,23.4c-6.3-9.5-11.7-27.8-11.7-27.8L461.3,316.3z"/>
		<polygon id="XMLID_31_" class="st0" points="446.6,339.7 417.3,268.5 401.6,313.4 		"/>
		<polygon id="XMLID_30_" class="st0" points="417.3,268.5 371.8,244.8 401.6,313.4 		"/>
		<path id="XMLID_29_" class="st0" d="M399.1,317.8c-0.5,1.6-13.3,41.7-13.3,41.7l-19.2,5.5C372.9,353.3,399.1,317.8,399.1,317.8z"
			/>
	</g>
</g>
<line id="XMLID_68_" class="st0" x1="1511.5" y1="0" x2="1511.5" y2="367"/>
<g id="XMLID_58_">
	<g id="XMLID_59_">
		<polygon id="XMLID_67_" class="st0" points="1537.4,409.6 1539.1,421.3 1554.3,424.9 1547.5,408.9 		"/>
		<path id="XMLID_66_" class="st0" d="M1494.1,402.8l54.1,11.3l-16.6-33.2C1531.7,380.9,1506.3,389.6,1494.1,402.8z"/>
		<path id="XMLID_65_" class="st0" d="M1543.9,343.8c0.3,0,18.8-4.4,18.8-4.4l-31,41.6L1543.9,343.8z"/>
		<path id="XMLID_64_" class="st0" d="M1483.4,384.8c0,0-10.2,15.6-9.3,15c0.9-0.5,14.7-6.8,15-7.4
			C1489.5,391.8,1483.4,384.8,1483.4,384.8z"/>
		<path id="XMLID_63_" class="st0" d="M1481.9,383.3c0,0,11.3,18.3,12.2,19.5c5.2-7.9,9.8-23.2,9.8-23.2L1481.9,383.3z"/>
		<polygon id="XMLID_62_" class="st0" points="1494.1,402.8 1518.6,343.4 1531.7,380.9 		"/>
		<polygon id="XMLID_61_" class="st0" points="1518.6,343.4 1556.5,323.7 1531.7,380.9 		"/>
		<path id="XMLID_60_" class="st0" d="M1533.7,384.5c0.4,1.3,11,34.8,11,34.8l16,4.6C1555.6,414.1,1533.7,384.5,1533.7,384.5z"/>
	</g>
</g>
<line id="XMLID_57_" class="st0" x1="1573.5" y1="0" x2="1573.5" y2="286"/>
<line id="XMLID_56_" class="st0" x1="1447.5" y1="0" x2="1447.5" y2="286"/>
<g id="XMLID_46_">
	<g id="XMLID_47_">
		<polygon id="XMLID_55_" class="st0" points="1605.5,346.2 1605.9,362.7 1628.1,370.2 1620.8,346.9 		"/>
		<path id="XMLID_54_" class="st0" d="M1541.5,329.7l79.5,24.6l-18.9-48.8C1602.1,305.5,1562.2,313.4,1541.5,329.7z"/>
		<path id="XMLID_53_" class="st0" d="M1627.3,255.8c0.5,0,29.2-3.1,29.2-3.1l-54.4,52.7L1627.3,255.8z"/>
		<path id="XMLID_52_" class="st0" d="M1528.6,302.9c0,0-18.2,20-16.7,19.4c1.5-0.6,23.4-7.1,24-7.9
			C1536.5,313.6,1528.6,302.9,1528.6,302.9z"/>
		<path id="XMLID_51_" class="st0" d="M1526.6,300.6c0,0,13.6,27.2,14.9,29.1c9.4-10.1,18.9-30.6,18.9-30.6L1526.6,300.6z"/>
		<polygon id="XMLID_50_" class="st0" points="1541.5,329.7 1589.2,251.2 1602.1,305.5 		"/>
		<polygon id="XMLID_49_" class="st0" points="1589.2,251.2 1650,230 1602.1,305.5 		"/>
		<path id="XMLID_48_" class="st0" d="M1604.5,310.8c0.4,1.9,10.3,50.1,10.3,50.1l23.3,9C1632.1,355.5,1604.5,310.8,1604.5,310.8z"
			/>
	</g>
</g>
<g id="XMLID_14_">
	<g id="XMLID_37_">
		<polygon id="XMLID_45_" class="st0" points="1470.3,347.8 1472.3,361.8 1490.5,366.1 1482.4,347 		"/>
		<path id="XMLID_44_" class="st0" d="M1418.4,339.7l64.9,13.6l-19.8-39.8C1463.4,313.4,1432.9,323.9,1418.4,339.7z"/>
		<path id="XMLID_43_" class="st0" d="M1478.1,268.9c0.4-0.1,22.6-5.3,22.6-5.3l-37.2,49.9L1478.1,268.9z"/>
		<path id="XMLID_42_" class="st0" d="M1405.5,318c0,0-12.2,18.7-11.1,18c1.1-0.6,17.7-8.2,18-8.9
			C1412.8,326.5,1405.5,318,1405.5,318z"/>
		<path id="XMLID_41_" class="st0" d="M1403.7,316.3c0,0,13.5,21.9,14.7,23.4c6.3-9.5,11.7-27.8,11.7-27.8L1403.7,316.3z"/>
		<polygon id="XMLID_40_" class="st0" points="1418.4,339.7 1447.7,268.5 1463.4,313.4 		"/>
		<polygon id="XMLID_39_" class="st0" points="1447.7,268.5 1493.2,244.8 1463.4,313.4 		"/>
		<path id="XMLID_38_" class="st0" d="M1465.9,317.8c0.5,1.6,13.3,41.7,13.3,41.7l19.2,5.5C1492.1,353.3,1465.9,317.8,1465.9,317.8z
			"/>
	</g>
</g>
</svg>
