<?xml version="1.0" encoding="utf-8"?>
<!-- Generator: Adobe Illustrator 19.0.0, SVG Export Plug-In . SVG Version: 6.00 Build 0)  -->
<svg version="1.1" id="Слой_1" xmlns="http://www.w3.org/2000/svg" xmlns:xlink="http://www.w3.org/1999/xlink" x="0px" y="0px"
	 viewBox="0 0 1980 1020" style="enable-background:new 0 0 1980 1020;" xml:space="preserve">
<style type="text/css">
	.st0{fill:#FFFFFF;}
	.st1{opacity:0.37;fill:#EFEFEF;}
	.st2{opacity:0.22;fill:#D674AB;}
	.st3{opacity:0.17;fill:#8F67A8;}
	.st4{opacity:9.000000e-002;fill:#D674AB;}
	.st5{fill:#8F67A8;}
	.st6{fill:#4EB6DE;}
	.st7{fill:#D674AB;}
	.st8{opacity:0.22;fill:#4EB6DE;}
	.st9{opacity:0.12;fill:#8F67A8;}
	.st10{fill:#101112;}
	.st11{fill:url(#XMLID_157_);}
	.st12{fill:url(#XMLID_158_);}
	.st13{font-family:'Roboto-BlackItalic';}
	.st14{font-size:53.4089px;}
	.st15{font-family:'Roboto-LightItalic';}
	.st16{font-size:47.7845px;}
</style>
<g id="XMLID_155_">
	<rect id="XMLID_153_" x="581.1" y="37.6" class="st0" width="897.1" height="897.1"/>
	<rect id="XMLID_152_" x="581.1" y="37.6" class="st0" width="897.1" height="897.1"/>
	<polygon id="XMLID_151_" class="st1" points="581.1,934.7 1478.2,934.7 1478.2,37.6 	"/>
	<polygon id="XMLID_150_" class="st2" points="852.4,222.4 649.7,101.9 671.5,267.2 	"/>
	<polygon id="XMLID_149_" class="st3" points="1066.2,123.6 1026.5,378.7 1205.9,251.8 	"/>
	<polygon id="XMLID_148_" class="st3" points="911.1,77.5 853.9,160.4 952.1,139 	"/>
	<polygon id="XMLID_147_" class="st3" points="950.9,433.8 739.4,322.3 834.2,524.8 	"/>
	<polygon id="XMLID_146_" class="st3" points="697.1,513.2 597.2,428.6 602.3,533.7 	"/>
	<polygon id="XMLID_145_" class="st4" points="908.6,579.9 658.7,318.4 610,631.1 	"/>
	<polygon id="XMLID_144_" class="st4" points="1410.9,594.4 1236.1,411.5 1202,630.3 	"/>
	<polygon id="XMLID_143_" class="st5" points="889.6,283.9 787.3,192.9 805.7,284 	"/>
	<polygon id="XMLID_142_" class="st5" points="938.9,268.9 917.5,189.6 966.1,226.1 	"/>
	<polygon id="XMLID_141_" class="st5" points="854.5,362.9 752.6,317.5 769,368.3 	"/>
	<polygon id="XMLID_140_" class="st6" points="692,250.7 637.8,191.4 624.9,254.8 	"/>
	<polygon id="XMLID_139_" class="st5" points="696.1,111.3 706.2,79.5 720.4,106.6 	"/>
	<polygon id="XMLID_138_" class="st7" points="802.2,132.4 807.8,107.2 822.2,125.3 	"/>
	<polygon id="XMLID_137_" class="st7" points="682,361.2 707.6,302.5 726.8,377.8 	"/>
	<polygon id="XMLID_136_" class="st6" points="823.1,464.6 861.1,417.4 873.2,492.6 	"/>
	<path id="XMLID_135_" class="st7" d="M913,419.8c-1-2.7-32.5-70.7-32.5-70.7l78.1,17.8L913,419.8z"/>
	<polygon id="XMLID_134_" class="st6" points="923.9,333.3 926.8,296.9 948.2,321.5 	"/>
	<polygon id="XMLID_133_" class="st6" points="679.2,455.6 681,433.4 694.1,448.4 	"/>
	<polygon id="XMLID_132_" class="st7" points="868.5,197.4 883,180.8 886.4,205.6 	"/>
	<polygon id="XMLID_131_" class="st7" points="799,88.3 793,100.9 802.9,98.3 	"/>
	<polygon id="XMLID_130_" class="st7" points="822.4,173.3 800.3,158.9 807.3,183.7 	"/>
	<polygon id="XMLID_129_" class="st5" points="915.1,108.3 915.9,138.6 946.4,119.4 	"/>
	<polygon id="XMLID_128_" class="st5" points="743.1,130.9 728.4,123 732.3,132.8 	"/>
	<polygon id="XMLID_127_" class="st7" points="769.7,184.2 696.6,184.9 774.2,221.6 	"/>
	<polygon id="XMLID_126_" class="st7" points="666.1,83.2 634,83.5 668,99.6 	"/>
	<polygon id="XMLID_125_" class="st6" points="853.6,76 867.8,61.6 876.7,78.8 	"/>
	<polygon id="XMLID_124_" class="st6" points="813.8,213 853.9,160.4 846.8,204.8 	"/>
	<polygon id="XMLID_123_" class="st7" points="753.7,272.6 765.4,228 773.6,269.6 	"/>
	<path id="XMLID_122_" class="st6" d="M708.9,336.8c2.6-0.4,34.5-33.7,34.5-33.7l-4.5,33.4L708.9,336.8z"/>
	<polygon id="XMLID_121_" class="st5" points="707.7,283.2 702.3,259 724.4,261.2 	"/>
	<polygon id="XMLID_120_" class="st6" points="986.2,357 981.8,241.7 1025.5,270 	"/>
	<path id="XMLID_119_" class="st7" d="M875.5,335.1l-0.4-22.6l21.3,12.3C896.4,324.9,873.4,336.8,875.5,335.1z"/>
	<polygon id="XMLID_118_" class="st7" points="905.1,248 907.5,203.1 920.5,228.2 	"/>
	<polygon id="XMLID_117_" class="st6" points="852.4,94.1 844.6,100.2 852.8,103.5 	"/>
	<polygon id="XMLID_116_" class="st7" points="835.3,134.1 829.3,138.6 840.4,141.6 	"/>
	<polygon id="XMLID_115_" class="st7" points="767.8,88.1 768.1,92 775,91.8 	"/>
	<polygon id="XMLID_114_" class="st7" points="655.2,125 643.1,118.4 645.9,123.6 	"/>
	<polygon id="XMLID_113_" class="st5" points="660,188 663.8,173.2 667.5,179.1 	"/>
	<polygon id="XMLID_112_" class="st7" points="829.3,326.2 819.1,312.3 816.9,321.7 	"/>
	<polygon id="XMLID_111_" class="st7" points="950.8,294.9 954.7,285 956.9,293.3 	"/>
	<polygon id="XMLID_110_" class="st5" points="978.4,212.2 985.1,200.3 988.4,216.1 	"/>
	<polygon id="XMLID_109_" class="st7" points="955.3,179.5 947.4,172.7 947.9,176.2 	"/>
	<polygon id="XMLID_108_" class="st5" points="897.2,168.2 888.7,160.3 889.6,167.3 	"/>
	<polygon id="XMLID_107_" class="st0" points="1002.2,181.5 993.7,173.6 994.6,180.5 	"/>
	<polygon id="XMLID_106_" class="st7" points="858.6,224.5 852.4,222.4 854.9,226.9 	"/>
	<polygon id="XMLID_105_" class="st7" points="840.9,164.7 833.5,158.6 832,163.6 	"/>
	<polygon id="XMLID_104_" class="st7" points="754,161.6 760.2,137.7 763.2,143.1 	"/>
	<polygon id="XMLID_103_" class="st6" points="811.3,278.7 775,321.6 809.4,332.6 	"/>
	<polygon id="XMLID_102_" class="st7" points="900.9,445.7 860.8,413.8 881.5,393.3 	"/>
	<polygon id="XMLID_101_" class="st5" points="885.6,390.5 854.7,370.4 905,372.4 	"/>
	<polygon id="XMLID_100_" class="st5" points="911.8,345.7 915,335.3 922.4,345.4 	"/>
	<polygon id="XMLID_99_" class="st7" points="912.1,265.5 910.3,284 924.6,286.1 	"/>
	<polygon id="XMLID_98_" class="st0" points="857.6,306 851.2,315.7 862.8,332.9 	"/>
	<polygon id="XMLID_97_" class="st7" points="825.9,375.4 802.8,354.5 797.4,377.2 	"/>
	<polygon id="XMLID_96_" class="st5" points="818.1,405.5 743.5,377.2 767.4,409.7 	"/>
	<polygon id="XMLID_95_" class="st5" points="837.9,375.5 817.8,428.5 850.5,414.4 	"/>
	<polygon id="XMLID_94_" class="st7" points="968,218.4 957.6,219.2 973.2,231.4 	"/>
	<polygon id="XMLID_93_" class="st6" points="778.9,151.6 769.7,164.9 783.4,165.1 	"/>
	<polygon id="XMLID_92_" class="st7" points="718.7,216.1 731.6,233.6 720.5,232.4 	"/>
	<polygon id="XMLID_91_" class="st7" points="712.6,156.3 691.8,138.8 692,146.1 	"/>
	<polygon id="XMLID_90_" class="st0" points="781,116.6 782.6,122.1 787,118.5 	"/>
	<polygon id="XMLID_89_" class="st7" points="737.5,277 743,291.3 752.4,286.6 	"/>
	<polygon id="XMLID_88_" class="st7" points="733.2,402.3 722.8,425.4 741.4,428 	"/>
	<polygon id="XMLID_87_" class="st7" points="1047.5,150.8 1036.4,175.4 1056.3,178.2 	"/>
	<polygon id="XMLID_86_" class="st0" points="669.5,295.7 643.7,295.4 650.8,315.8 	"/>
	<polygon id="XMLID_85_" class="st7" points="651,383.6 634.7,383.4 639.2,396.4 	"/>
	<polygon id="XMLID_84_" class="st7" points="1005.9,236.9 1027.1,224.1 1025.2,243.2 	"/>
	<polygon id="XMLID_83_" class="st6" points="1017.6,200.2 1033.9,190.3 1032.5,205.1 	"/>
	<polyline id="XMLID_82_" class="st5" points="879.5,223.3 878.3,224.9 857.6,252.8 894.8,244.7 	"/>
	<polygon id="XMLID_81_" class="st7" points="948.7,356.3 950,329.4 965.2,345.9 	"/>
	<polygon id="XMLID_80_" class="st5" points="831.9,511.5 793.7,468 757.1,521 	"/>
	<polygon id="XMLID_79_" class="st5" points="779.2,574 757.9,549.8 737.5,579.3 	"/>
	<path id="XMLID_78_" class="st7" d="M794.9,425c0,0-0.8,1-2.1,2.5c-6.3,7.5-24.2,29.3-22.8,29.4c1.7,0.2,32.4-2,32.4-2"/>
	<polygon id="XMLID_77_" class="st7" points="771.3,390.1 755.5,434.1 780.7,412.5 	"/>
	<polygon id="XMLID_76_" class="st5" points="748.7,455.7 745.6,473.9 755.7,467.6 	"/>
	<polygon id="XMLID_75_" class="st4" points="829.1,356.9 971.4,109.5 1181.5,239 	"/>
	<polygon id="XMLID_74_" class="st4" points="1232.8,838.5 1320.2,686.5 1449.4,766 	"/>
	<polygon id="XMLID_73_" class="st8" points="760.1,285.2 713.9,114.2 863,78.7 	"/>
	<polygon id="XMLID_72_" class="st2" points="1464.3,934.2 1450.1,826.1 1269.2,870.9 1375.7,934.2 	"/>
	<polygon id="XMLID_71_" class="st3" points="1036.1,934.2 1063.5,758.6 877.2,890.4 925,934.2 	"/>
	<polygon id="XMLID_70_" class="st3" points="1478.2,506.9 1402.3,523.3 1478.2,587.6 	"/>
	<polygon id="XMLID_69_" class="st4" points="1208.5,320.7 1343.1,461.5 1369.3,293.1 	"/>
	<polygon id="XMLID_68_" class="st8" points="1213.7,209.5 1407.3,213.8 1307.4,77 	"/>
	<polygon id="XMLID_67_" class="st9" points="712.8,839.8 888.3,672 678.4,639.4 	"/>
	<polygon id="XMLID_66_" class="st5" points="1345.6,833.2 1379.6,821.8 1356.5,814.1 	"/>
	<polygon id="XMLID_65_" class="st5" points="1102.9,824.1 1118.2,881.1 1083.2,854.8 	"/>
	<polygon id="XMLID_64_" class="st5" points="1399.3,887 1425.7,915.8 1431.9,885 	"/>
	<polygon id="XMLID_63_" class="st6" points="1415.6,778.6 1434.3,799 1438.7,777.2 	"/>
	<polygon id="XMLID_62_" class="st6" points="1416.5,825 1421.8,830.9 1423.1,824.6 	"/>
	<polygon id="XMLID_61_" class="st7" points="1439.9,672.6 1458.5,720.1 1405.4,688.5 	"/>
	<polygon id="XMLID_60_" class="st6" points="1198.9,709.3 1196.1,745.7 1174.6,721.2 	"/>
	<polygon id="XMLID_59_" class="st6" points="1393.9,526.5 1392.2,548.7 1379.1,533.7 	"/>
	<polygon id="XMLID_58_" class="st6" points="1316.4,798 1292.5,825.4 1286.9,784.5 	"/>
	<polygon id="XMLID_57_" class="st6" points="1269.6,757.8 1229.5,810.5 1236.6,766 	"/>
	<polygon id="XMLID_56_" class="st6" points="1264.1,915.5 1212.4,876 1256.1,883 	"/>
	<polygon id="XMLID_55_" class="st7" points="1324.3,723.9 1312.6,768.5 1304.4,726.9 	"/>
	<path id="XMLID_54_" class="st6" d="M1405.6,674.6c-2.9,0.3-39,35.3-39,35.3l6.3-36.2L1405.6,674.6z"/>
	<path id="XMLID_53_" class="st6" d="M1333,541c-3.7,0-47,18.1-47,18.1l3.8-20.3L1333,541z"/>
	<polygon id="XMLID_52_" class="st5" points="1404,740.3 1409.4,764.4 1387.3,762.3 	"/>
	<polygon id="XMLID_51_" class="st6" points="1116.5,644.2 1120.9,759.5 1077.3,731.2 	"/>
	<polygon id="XMLID_50_" class="st6" points="969.6,694.4 972.4,768.2 944.4,750 	"/>
	<path id="XMLID_49_" class="st7" d="M1228.2,682.8l0.4,22.6l-21.3-12.3C1207.2,693,1230.2,681,1228.2,682.8z"/>
	<polygon id="XMLID_48_" class="st7" points="1169.8,735.7 1166.9,789.8 1151.2,759.6 	"/>
	<polygon id="XMLID_47_" class="st7" points="1253.3,683.3 1263.6,697.1 1265.8,687.7 	"/>
	<polygon id="XMLID_46_" class="st7" points="1142.2,697.3 1138.2,707.2 1136,698.9 	"/>
	<polygon id="XMLID_45_" class="st5" points="1099.5,784.3 1092.8,796.1 1089.6,780.4 	"/>
	<polygon id="XMLID_44_" class="st5" points="1175.6,823.5 1194.4,840.9 1192.5,825.6 	"/>
	<polygon id="XMLID_43_" class="st0" points="1075.8,815 1084.3,822.9 1083.4,815.9 	"/>
	<polygon id="XMLID_42_" class="st7" points="1231.4,828.7 1258.7,851.4 1264,833 	"/>
	<polygon id="XMLID_41_" class="st7" points="1280.2,726.2 1325.4,677.3 1282,664.2 	"/>
	<polygon id="XMLID_40_" class="st5" points="1166.2,650.8 1163,661.1 1155.6,651.1 	"/>
	<polygon id="XMLID_39_" class="st7" points="1165.9,731 1167.7,712.5 1153.4,710.4 	"/>
	<polygon id="XMLID_38_" class="st5" points="1356.1,627.3 1386.9,655.2 1394.2,624.9 	"/>
	<polygon id="XMLID_37_" class="st5" points="1253.2,582.3 1327.7,610.7 1303.8,578.1 	"/>
	<polygon id="XMLID_36_" class="st7" points="1110,778 1120.4,777.3 1104.8,765.1 	"/>
	<polygon id="XMLID_35_" class="st7" points="1359.3,780.4 1346.4,762.9 1357.4,764.1 	"/>
	<polygon id="XMLID_34_" class="st7" points="1403.5,873.6 1390.6,856.1 1401.6,857.4 	"/>
	<polygon id="XMLID_33_" class="st7" points="1340.5,719.5 1335,705.2 1325.5,709.9 	"/>
	<polygon id="XMLID_32_" class="st7" points="1344.8,594.2 1355.2,571.1 1336.5,568.5 	"/>
	<polygon id="XMLID_31_" class="st7" points="1284.9,509.4 1299.7,476.6 1273.1,472.8 	"/>
	<polygon id="XMLID_30_" class="st7" points="1002.2,857.9 1014.4,830.8 992.4,827.7 	"/>
	<polygon id="XMLID_29_" class="st6" points="1428.6,623.5 1454.9,623.8 1447.7,602.9 	"/>
	<polygon id="XMLID_28_" class="st7" points="1072.1,759.6 1050.9,772.4 1052.7,753.2 	"/>
	<polygon id="XMLID_27_" class="st6" points="1060.4,796.3 1044.1,806.2 1045.5,791.4 	"/>
	<polyline id="XMLID_26_" class="st5" points="1233.6,756.7 1235.3,754.4 1265.8,713.2 1211,725 	"/>
	<polygon id="XMLID_25_" class="st5" points="1396.3,448.9 1390.3,480.6 1426.1,478.5 	"/>
	<polygon id="XMLID_24_" class="st5" points="1240.7,446.1 1237.1,464.9 1258.4,463.7 	"/>
	<polygon id="XMLID_23_" class="st7" points="1379.8,602.5 1395.6,558.6 1370.3,580.2 	"/>
	<polygon id="XMLID_22_" class="st5" points="1358.7,519.7 1361.8,501.5 1351.7,507.8 	"/>
	<polygon id="XMLID_21_" class="st8" points="1171.1,871.4 1133.9,733.5 1254.1,705 	"/>
	<g id="XMLID_156_">
		<g id="XMLID_174_">
			<polygon id="XMLID_20_" class="st5" points="1478.2,61.5 1150.8,388.9 1150.8,372.3 1478.2,44.8 			"/>
			<polygon id="XMLID_19_" class="st5" points="1478.2,44.8 1478.2,61.5 1150.8,388.9 1150.8,372.3 			"/>
			<g id="XMLID_179_">
				<polygon id="XMLID_18_" class="st7" points="1345.9,236.7 1166.1,416.6 1166.1,433.2 1354.2,245.1 				"/>
				<line id="XMLID_17_" class="st7" x1="1345.9" y1="236.7" x2="1166.1" y2="416.6"/>
			</g>
			<g id="XMLID_175_">
				<polygon id="XMLID_16_" class="st5" points="1367.6,231.7 1392.7,206.6 1384.4,198.3 1358.4,224.2 				"/>
				<polygon id="XMLID_15_" class="st7" points="1403.6,195.7 1412.4,186.9 1404.1,178.6 1394.5,188.2 				"/>
				<path id="XMLID_14_" class="st5" d="M1358.4,224.2l25.9-25.9C1368.6,214,1374.2,208.4,1358.4,224.2L1358.4,224.2z"/>
			</g>
		</g>
		<g id="XMLID_166_">
			<polygon id="XMLID_13_" class="st7" points="950.3,666.3 682.4,934.2 667.7,932.3 933.7,666.3 			"/>
			<polygon id="XMLID_12_" class="st5" points="897.7,649.1 771.9,774.5 780,783.5 914.3,649.1 			"/>
			<polygon id="XMLID_11_" class="st5" points="1095.2,666.3 1111.8,666.3 843.9,934.2 829.1,934.2 829.1,932.3 			"/>
			<g id="XMLID_167_">
				<polygon id="XMLID_10_" class="st5" points="749.6,797.1 724.5,822.2 732.9,830.5 758.8,804.6 				"/>
				<polygon id="XMLID_9_" class="st5" points="713.6,833.1 704.8,841.9 713.2,850.2 722.8,840.6 				"/>
				<path id="XMLID_8_" class="st7" d="M758.8,804.6l-25.9,25.9C748.6,814.8,743,820.4,758.8,804.6L758.8,804.6z"/>
			</g>
		</g>
		<g id="XMLID_159_">
			<polygon id="XMLID_7_" class="st10" points="1126.4,462 965,462 1045.7,339.4 			"/>
			<linearGradient id="XMLID_157_" gradientUnits="userSpaceOnUse" x1="735.5704" y1="442.3556" x2="1355.8295" y2="442.3556">
				<stop  offset="0" style="stop-color:#D674AB"/>
				<stop  offset="1" style="stop-color:#8F67A8"/>
			</linearGradient>
			<path id="XMLID_162_" class="st11" d="M1045.7,206.8L735.6,677.9h620.3L1045.7,206.8z M1045.7,277.3l240.9,366H804.8
				L1045.7,277.3z"/>
			<polygon id="XMLID_4_" class="st10" points="1126.4,462 965,462 1045.7,339.4 			"/>
			<linearGradient id="XMLID_158_" gradientUnits="userSpaceOnUse" x1="965.047" y1="400.6995" x2="1126.3528" y2="400.6995">
				<stop  offset="0" style="stop-color:#D674AB"/>
				<stop  offset="1" style="stop-color:#8F67A8"/>
			</linearGradient>
			<polygon id="XMLID_3_" class="st12" points="1126.4,462 965,462 1045.7,339.4 			"/>
		</g>
		<text id="XMLID_2_" transform="matrix(1 0 0 1 919.7616 543.3182)" class="st7 st13 st14">TRIANGLE</text>
		<text id="XMLID_1_" transform="matrix(1 0 0 1 949.8298 612.1591)" class="st7 st15 st16">DESIGN</text>
	</g>
</g>
</svg>
