<?xml version="1.0" encoding="utf-8"?>
<!-- Generator: Adobe Illustrator 19.0.0, SVG Export Plug-In . SVG Version: 6.00 Build 0)  -->
<svg version="1.0" id="Layer_1" xmlns="http://www.w3.org/2000/svg" xmlns:xlink="http://www.w3.org/1999/xlink" x="0px" y="0px"
	 viewBox="692 -19.2 1980 879.1" enable-background="new 692 -19.2 1980 879.1" xml:space="preserve">
<g>
	
		<linearGradient id="SVGID_1_" gradientUnits="userSpaceOnUse" x1="1568.0789" y1="889.6411" x2="1797.1873" y2="-174.3006" gradientTransform="matrix(1 0 0 -1 0 839.4701)">
		<stop  offset="0" style="stop-color:#371B4C"/>
		<stop  offset="5.408452e-002" style="stop-color:#38215D"/>
		<stop  offset="0.2668" style="stop-color:#3D379B"/>
		<stop  offset="0.3676" style="stop-color:#3F40B4"/>
		<stop  offset="1" style="stop-color:#FB79B1"/>
	</linearGradient>
	<rect x="692" y="181" fill="url(#SVGID_1_)" width="1980" height="595.6"/>
	<g>
		<g>
			<defs>
				<rect id="SVGID_2_" x="694.5" y="40.7" width="1977.5" height="879.1"/>
			</defs>
			<clipPath id="SVGID_3_">
				<use xlink:href="#SVGID_2_"  overflow="visible"/>
			</clipPath>
			
				<linearGradient id="SVGID_4_" gradientUnits="userSpaceOnUse" x1="491.3023" y1="870.8224" x2="1694.087" y2="870.8224" gradientTransform="matrix(1 0 0 -1.1067 0 1539.0289)">
				<stop  offset="0" style="stop-color:#00A994"/>
				<stop  offset="0" style="stop-color:#3C3794"/>
				<stop  offset="0.5056" style="stop-color:#A43593"/>
				<stop  offset="1" style="stop-color:#DA2128"/>
			</linearGradient>
			<path opacity="0.3" clip-path="url(#SVGID_3_)" fill="url(#SVGID_4_)" enable-background="new    " d="M525.2,581
				c-41.2-50.5-46.4-130.1-7-182.1c39.4-52.1,142.7-104.5,200.2-48.3c38,37.2,64.9,74.3,119,82.9c94.9,15,189-63.8,282.5-40.2
				c73,18.5,122.1,91.1,173.2,145.9c54.5,58.4,132.5,89.5,208.1,81.6c46.1-4.9,94.8-41,142-31.6c40.7,8.1,61,52.7,45.9,91
				c-28.8,73.4-158.1,106.9-225.3,127.6c-65.4,20.1-136.2,20.2-203.1,8c-98.7-18.1-190.8-60.9-282.8-100.7s-187.2-77.4-287.3-83.8
				c-44-2.8-90.6,0-129.6-20.7C547.2,603.3,535.1,593.1,525.2,581z"/>
		</g>
		<g>
			<defs>
				<rect id="SVGID_5_" x="694.5" y="40.7" width="1977.5" height="879.1"/>
			</defs>
			<clipPath id="SVGID_6_">
				<use xlink:href="#SVGID_5_"  overflow="visible"/>
			</clipPath>
			
				<linearGradient id="SVGID_7_" gradientUnits="userSpaceOnUse" x1="4427.1411" y1="4126.5811" x2="4978.4619" y2="3159.9792" gradientTransform="matrix(0.8875 0.4609 0.4609 -0.8875 -3287.5288 1326.6805)">
				<stop  offset="0" style="stop-color:#7E1B4C"/>
				<stop  offset="0.1471" style="stop-color:#74175D"/>
				<stop  offset="0.7257" style="stop-color:#4E069B"/>
				<stop  offset="1" style="stop-color:#3F00B4"/>
			</linearGradient>
			<path opacity="0.3" clip-path="url(#SVGID_6_)" fill="url(#SVGID_7_)" enable-background="new    " d="M2737.5,374.7
				c3.2,29.6,11.7,57.4,11.5,87.5c-0.2,27.3-6.4,54.1-7.9,81.5c-0.9,16.1-8.2,30.3-10,45.9c-1.7,14.8,1.8,31.8,1.2,46.9
				c-1.4,37.4-7,74.7-16.6,110.9c-43.7-4.1-83.6-36-97.1-77.8c-9.9-30.3-6.5-63.3-12.5-94.6c-8.3-43.1-36-81.4-72.7-105
				c-39.8-25.6-84.3-23.2-122-55c-35.2-29.6-46.5-87.6-10.5-127.9c39.9-44.6,108.1-36.7,144-91.8c27.4-42.1,50.1-92.2,102.9-101.1
				c32.1-5.4,65.3,11.8,86.3,34.4c27.1,29.1,16.9,60.3,10.7,98.2C2736.6,277.1,2732,324.6,2737.5,374.7z"/>
		</g>
		<g>
			<defs>
				<rect id="SVGID_8_" x="694.5" y="40.7" width="1977.5" height="879.1"/>
			</defs>
			<clipPath id="SVGID_9_">
				<use xlink:href="#SVGID_8_"  overflow="visible"/>
			</clipPath>
			
				<linearGradient id="SVGID_10_" gradientUnits="userSpaceOnUse" x1="1855.1969" y1="673.334" x2="2619.5974" y2="673.334" gradientTransform="matrix(0.5244 -0.8514 -0.8514 -0.5244 706.9435 2767.1057)">
				<stop  offset="0" style="stop-color:#021652"/>
				<stop  offset="0.3106" style="stop-color:#0056AD"/>
				<stop  offset="0.7223" style="stop-color:#38C4DD"/>
				<stop  offset="1" style="stop-color:#68EFD8"/>
			</linearGradient>
			<path opacity="0.2" clip-path="url(#SVGID_9_)" fill="url(#SVGID_10_)" enable-background="new    " d="M1245,561.9
				c9.3,6.8,9.9,7.9,23.3,20.5c0,0,1.9,2,29.4,27c110.9,100.8,206.3,133,206.3,133c111,37.4,131.5-32.9,326-12
				c86.4,9.3,141.8,22,142,22l0,0c81.6,28.1,151,5.8,166-31.7c8.1-20.2,2.3-49.6-12-70c-6.9-9.8-16-17.9-54-36
				c-65.7-31.2-79.8-26.6-108-48.3c-28.6-22-43.1-49.4-47.9-57.5c-30.8-52.2-23.3-91-71.7-117.4c-102.1-55.7-222,86-323.3,15.4
				c-36.3-25.3-61.4-75.5-85.6-111.8c-54.8-82.1-109.9-167.9-212.8-192.6c-81-19.4-171,3.4-233,59.1
				c-55.4,49.7-86.1,119.3-132.6,176.3c-52.3,64.2-126.2,99.4-206.2,117.3c-14,3.1-22.1,16.8-36.7,16.1
				c-72.3-3.3-103.6-218.9-112.2-216.9c-8.9,2.1-0.8,238.4,108.5,271.1c3.9,1.2,6.8,1.7,9.9,2.3
				C792.8,558.8,1094.3,451.1,1245,561.9z"/>
		</g>
	</g>
	<g opacity="0.7">
		<g id="звёзды_1_">
			<circle id="XMLID_926_" fill="#FFFFFF" cx="2028" cy="246.5" r="2.3"/>
			<circle id="XMLID_925_" fill="#FFFFFF" cx="1976.8" cy="269.9" r="2.3"/>
			<circle id="XMLID_924_" fill="#FFFFFF" cx="2254" cy="662.5" r="2.3"/>
			<circle id="XMLID_923_" fill="#FFFFFF" cx="1597.9" cy="198.5" r="1.1"/>
			<circle id="XMLID_922_" fill="#FFFFFF" cx="1162.8" cy="309.3" r="2.3"/>
			<circle id="XMLID_920_" fill="#FFFFFF" cx="2204.8" cy="488.6" r="2.3"/>
			<circle id="XMLID_919_" fill="#FFFFFF" cx="2109.4" cy="351.8" r="1.4"/>
			<circle id="XMLID_918_" fill="#FFFFFF" cx="2296.5" cy="313.9" r="2.3"/>
			<circle id="XMLID_748_" fill="#FFFFFF" cx="2236.3" cy="543.5" r="2.3"/>
			<circle id="XMLID_746_" fill="#FFFFFF" cx="1939.7" cy="351.8" r="2.3"/>
			<circle id="XMLID_745_" fill="#FFFFFF" cx="1872" cy="178.7" r="2.3"/>
			<circle id="XMLID_744_" fill="#FFFFFF" cx="1117" cy="541.2" r="1"/>
			<circle id="XMLID_743_" fill="#FFFFFF" cx="1383.5" cy="354.1" r="2.3"/>
			<circle id="XMLID_742_" fill="#FFFFFF" cx="1380.8" cy="223.3" r="2.3"/>
			<circle id="XMLID_739_" fill="#FFFFFF" cx="2219.4" cy="227.9" r="2.3"/>
			<circle id="XMLID_738_" fill="#FFFFFF" cx="1267.8" cy="484" r="2.3"/>
		</g>
		<circle id="XMLID_731_" fill="#FFFFFF" cx="2401.9" cy="515.9" r="1.1"/>
		<circle id="XMLID_727_" fill="#FFFFFF" cx="2381.1" cy="645.7" r="2.3"/>
		<circle id="XMLID_726_" fill="#FFFFFF" cx="2548" cy="329.6" r="2.3"/>
		<circle id="XMLID_724_" fill="#FFFFFF" cx="2430.3" cy="225.6" r="2.3"/>
		<circle id="XMLID_722_" fill="#FFFFFF" cx="2610.6" cy="269.9" r="2.3"/>
		<circle id="XMLID_720_" fill="#FFFFFF" cx="2612.9" cy="591.8" r="2.3"/>
		<circle id="XMLID_706_" fill="#FFFFFF" cx="2537.3" cy="678.4" r="2.3"/>
		<circle id="XMLID_703_" fill="#FFFFFF" cx="825.6" cy="719.3" r="2.3"/>
		<circle id="XMLID_694_" fill="#FFFFFF" cx="957.6" cy="307" r="2.3"/>
		<circle id="XMLID_597_" fill="#FFFFFF" cx="852.7" cy="268.3" r="0.9"/>
		<circle id="XMLID_585_" fill="#FFFFFF" cx="929.3" cy="629" r="2.3"/>
		<circle id="XMLID_584_" fill="#FFFFFF" cx="753.1" cy="189.7" r="2.3"/>
		<circle id="XMLID_583_" fill="#FFFFFF" cx="827.9" cy="354.1" r="2.3"/>
		<circle id="XMLID_576_" fill="#FFFFFF" cx="757.6" cy="310.9" r="2.3"/>
	</g>
</g>
</svg>
