<?xml version="1.0" encoding="utf-8"?>
<!-- Generator: Adobe Illustrator 19.0.0, SVG Export Plug-In . SVG Version: 6.00 Build 0)  -->
<svg version="1.1" id="Layer_1" xmlns="http://www.w3.org/2000/svg" xmlns:xlink="http://www.w3.org/1999/xlink" x="0px" y="0px"
	 viewBox="692 -19.2 1980 879.1" style="enable-background:new 692 -19.2 1980 879.1;" xml:space="preserve">
<style type="text/css">
	.st0{fill:url(#SVGID_1_);}
	.st1{opacity:0.3;clip-path:url(#SVGID_5_);fill:url(#SVGID_6_);enable-background:new    ;}
	.st2{opacity:0.7;}
	.st3{fill:#FFFFFF;}
	.st4{opacity:0.2;fill:url(#SVGID_9_);enable-background:new    ;}
	.st5{opacity:0.3;fill:url(#SVGID_10_);enable-background:new    ;}
</style>
<g>
	
		<linearGradient id="SVGID_1_" gradientUnits="userSpaceOnUse" x1="1562.0194" y1="978.2499" x2="1803.314" y2="-142.282" gradientTransform="matrix(1 0 0 -1 0 839.4701)">
		<stop  offset="0" style="stop-color:#371B4C"/>
		<stop  offset="5.408452e-002" style="stop-color:#38215D"/>
		<stop  offset="0.2668" style="stop-color:#3D379B"/>
		<stop  offset="0.3676" style="stop-color:#3F40B4"/>
		<stop  offset="1" style="stop-color:#FB79B1"/>
	</linearGradient>
	<rect x="692" y="93.4" class="st0" width="1980" height="650"/>
	<g>
		<g>
			<defs>
				<rect id="SVGID_2_" x="694.5" y="-19.2" width="1977.5" height="879.1"/>
			</defs>
			<clipPath id="SVGID_3_">
				<use xlink:href="#SVGID_2_"  style="overflow:visible;"/>
			</clipPath>
		</g>
		<g>
			<defs>
				<rect id="SVGID_4_" x="694.5" y="-19.2" width="1977.5" height="879.1"/>
			</defs>
			<clipPath id="SVGID_5_">
				<use xlink:href="#SVGID_4_"  style="overflow:visible;"/>
			</clipPath>
			
				<linearGradient id="SVGID_6_" gradientUnits="userSpaceOnUse" x1="4370.3784" y1="4223.8066" x2="4921.6992" y2="3257.2048" gradientTransform="matrix(0.8875 0.4609 0.4609 -0.8875 -3287.5288 1326.6805)">
				<stop  offset="0" style="stop-color:#7E1B4C"/>
				<stop  offset="0.1471" style="stop-color:#74175D"/>
				<stop  offset="0.7257" style="stop-color:#4E069B"/>
				<stop  offset="1" style="stop-color:#3F00B4"/>
			</linearGradient>
			<path class="st1" d="M2731.9,262.3c3.2,29.6,11.7,57.4,11.5,87.5c-0.2,27.3-6.4,54.1-7.9,81.5c-0.9,16.1-8.2,30.3-10,45.9
				c-1.7,14.8,1.8,31.8,1.2,46.9c-1.4,37.4-7,74.7-16.6,110.9c-43.7-4.1-83.6-36-97.1-77.8c-9.9-30.3-6.5-63.3-12.5-94.6
				c-8.3-43.1-36-81.4-72.7-105c-39.8-25.6-84.3-23.2-122-55c-35.2-29.6-46.5-87.6-10.5-127.9c39.9-44.6,108.1-36.7,144-91.8
				c27.4-42.1,50.1-92.2,102.9-101.1c32.1-5.4,65.3,11.8,86.3,34.4c27.1,29.1,16.9,60.3,10.7,98.2
				C2731,164.7,2726.4,212.2,2731.9,262.3z"/>
		</g>
		<g>
			<defs>
				<rect id="SVGID_7_" x="694.5" y="-19.2" width="1977.5" height="879.1"/>
			</defs>
			<clipPath id="SVGID_8_">
				<use xlink:href="#SVGID_7_"  style="overflow:visible;"/>
			</clipPath>
		</g>
	</g>
	<g class="st2">
		<g id="звёзды_1_">
			<circle id="XMLID_926_" class="st3" cx="2028" cy="186.6" r="2.3"/>
			<circle id="XMLID_925_" class="st3" cx="1976.8" cy="210" r="2.3"/>
			<circle id="XMLID_924_" class="st3" cx="2254" cy="602.6" r="2.3"/>
			<circle id="XMLID_923_" class="st3" cx="1597.9" cy="138.6" r="1.1"/>
			<circle id="XMLID_922_" class="st3" cx="1162.8" cy="249.4" r="2.3"/>
			<circle id="XMLID_920_" class="st3" cx="2204.8" cy="428.7" r="2.3"/>
			<circle id="XMLID_919_" class="st3" cx="2109.4" cy="291.9" r="1.4"/>
			<circle id="XMLID_918_" class="st3" cx="2296.5" cy="254" r="2.3"/>
			<circle id="XMLID_748_" class="st3" cx="2236.3" cy="483.6" r="2.3"/>
			<circle id="XMLID_746_" class="st3" cx="1939.7" cy="291.9" r="2.3"/>
			<circle id="XMLID_745_" class="st3" cx="1872" cy="118.8" r="2.3"/>
			<circle id="XMLID_744_" class="st3" cx="1117" cy="481.3" r="1"/>
			<circle id="XMLID_743_" class="st3" cx="1383.5" cy="294.2" r="2.3"/>
			<circle id="XMLID_742_" class="st3" cx="1380.8" cy="163.4" r="2.3"/>
			<circle id="XMLID_739_" class="st3" cx="2219.4" cy="168" r="2.3"/>
			<circle id="XMLID_738_" class="st3" cx="1267.8" cy="424.1" r="2.3"/>
		</g>
		<circle id="XMLID_731_" class="st3" cx="2401.9" cy="456" r="1.1"/>
		<circle id="XMLID_727_" class="st3" cx="2381.1" cy="585.8" r="2.3"/>
		<circle id="XMLID_726_" class="st3" cx="2548" cy="269.7" r="2.3"/>
		<circle id="XMLID_724_" class="st3" cx="2430.3" cy="165.7" r="2.3"/>
		<circle id="XMLID_722_" class="st3" cx="2610.6" cy="210" r="2.3"/>
		<circle id="XMLID_720_" class="st3" cx="2612.9" cy="531.9" r="2.3"/>
		<circle id="XMLID_706_" class="st3" cx="2537.3" cy="618.5" r="2.3"/>
		<circle id="XMLID_703_" class="st3" cx="825.6" cy="659.4" r="2.3"/>
		<circle id="XMLID_694_" class="st3" cx="957.6" cy="247.1" r="2.3"/>
		<circle id="XMLID_597_" class="st3" cx="852.7" cy="208.4" r="0.9"/>
		<circle id="XMLID_585_" class="st3" cx="929.3" cy="569.1" r="2.3"/>
		<circle id="XMLID_584_" class="st3" cx="753.1" cy="129.8" r="2.3"/>
		<circle id="XMLID_583_" class="st3" cx="827.9" cy="294.2" r="2.3"/>
		<circle id="XMLID_576_" class="st3" cx="757.6" cy="251" r="2.3"/>
	</g>
</g>
<linearGradient id="SVGID_9_" gradientUnits="userSpaceOnUse" x1="1883.7614" y1="749.8147" x2="2648.1619" y2="749.8147" gradientTransform="matrix(0.5244 -0.8514 -0.8514 -0.5244 706.9435 2767.1057)">
	<stop  offset="0" style="stop-color:#021652"/>
	<stop  offset="0.3106" style="stop-color:#0056AD"/>
	<stop  offset="0.7223" style="stop-color:#38C4DD"/>
	<stop  offset="1" style="stop-color:#68EFD8"/>
</linearGradient>
<path class="st4" d="M1200.4,500.9c9.3,6.8,9.9,7.9,23.3,20.5c0,0,1.9,2,29.4,27c110.9,100.8,206.3,133,206.3,133
	c111,37.4,131.5-32.9,326-12c86.4,9.3,141.8,22,142,22l0,0c35.2,7.9,90.9,20.4,126-4c2.5-1.7,32.4-23.1,32-52
	c-0.7-48.7-86.9-57.9-166-130c-90.2-82.2-54.8-139.6-119.6-174.9c-102.1-55.7-222,86-323.3,15.4c-36.3-25.3-61.4-75.5-85.6-111.8
	C1336.1,152,1281,66.2,1178.1,41.5c-81-19.4-171,3.4-233,59.1c-55.4,49.7-86.1,119.3-132.6,176.3c-52.3,64.2-126.2,99.4-206.2,117.3
	c-14,3.1-22.1,16.8-36.7,16.1c-72.3-3.3-103.6-218.9-112.2-216.9c-8.9,2.1-0.8,238.4,108.5,271.1c3.9,1.2,6.8,1.7,9.9,2.3
	C748.2,497.8,1049.8,390.1,1200.4,500.9z"/>
<linearGradient id="SVGID_10_" gradientUnits="userSpaceOnUse" x1="462.7695" y1="912.1162" x2="1665.5542" y2="912.1162" gradientTransform="matrix(1 0 0 -1.1067 0 1539.0289)">
	<stop  offset="0" style="stop-color:#00A994"/>
	<stop  offset="0" style="stop-color:#3C3794"/>
	<stop  offset="0.5056" style="stop-color:#A43593"/>
	<stop  offset="1" style="stop-color:#DA2128"/>
</linearGradient>
<path class="st5" d="M496.7,535.3c-41.2-50.5-46.4-130.1-7-182.1c39.4-52.1,142.7-104.5,200.2-48.3c38,37.2,64.9,74.3,119,82.9
	c94.9,15,189-63.8,282.5-40.2c73,18.5,122.1,91.1,173.2,145.9c54.5,58.4,132.5,89.5,208.1,81.6c46.1-4.9,94.8-41,142-31.6
	c40.7,8.1,61,52.7,45.9,91c-28.8,73.4-158.1,106.9-225.3,127.6c-65.4,20.1-136.2,20.2-203.1,8c-98.7-18.1-190.8-60.9-282.8-100.7
	S762.2,592,662.1,585.6c-44-2.8-90.6,0-129.6-20.7C518.7,557.6,506.6,547.4,496.7,535.3z"/>
</svg>
