<?xml version="1.0" encoding="utf-8"?>
<!-- Generator: Adobe Illustrator 19.0.0, SVG Export Plug-In . SVG Version: 6.00 Build 0)  -->
<svg version="1.1" id="Layer_1" xmlns="http://www.w3.org/2000/svg" xmlns:xlink="http://www.w3.org/1999/xlink" x="0px" y="0px"
	 viewBox="664 -122.4 1980 595.6" style="enable-background:new 664 -122.4 1980 595.6;" xml:space="preserve">
<style type="text/css">
	.st0{fill:url(#SVGID_1_);}
	.st1{opacity:0.7;}
	.st2{fill:#FFFFFF;}
</style>
<g>
	
		<linearGradient id="SVGID_1_" gradientUnits="userSpaceOnUse" x1="1540.0912" y1="-759.3438" x2="1769.1996" y2="304.598" gradientTransform="matrix(1 0 0 1 0 405.7701)">
		<stop  offset="0" style="stop-color:#371B4C"/>
		<stop  offset="5.408452e-002" style="stop-color:#38215D"/>
		<stop  offset="0.2668" style="stop-color:#3D379B"/>
		<stop  offset="0.3676" style="stop-color:#3F40B4"/>
		<stop  offset="1" style="stop-color:#FB79B1"/>
	</linearGradient>
	<rect x="664" y="-122.4" class="st0" width="1980" height="595.6"/>
	<g class="st1">
		<g id="звёзды_1_">
			<circle id="XMLID_926_" class="st2" cx="2000" cy="-56.9" r="2.3"/>
			<circle id="XMLID_925_" class="st2" cx="1948.8" cy="-33.5" r="2.3"/>
			<circle id="XMLID_924_" class="st2" cx="2226" cy="359.1" r="2.3"/>
			<circle id="XMLID_923_" class="st2" cx="1569.9" cy="-104.9" r="1.1"/>
			<circle id="XMLID_922_" class="st2" cx="1134.8" cy="5.9" r="2.3"/>
			<circle id="XMLID_920_" class="st2" cx="2176.8" cy="185.2" r="2.3"/>
			<circle id="XMLID_919_" class="st2" cx="2081.4" cy="48.4" r="1.4"/>
			<circle id="XMLID_918_" class="st2" cx="2268.5" cy="10.5" r="2.3"/>
			<circle id="XMLID_748_" class="st2" cx="2208.3" cy="240.1" r="2.3"/>
			<circle id="XMLID_746_" class="st2" cx="1911.7" cy="48.4" r="2.3"/>
			<circle id="XMLID_745_" class="st2" cx="1814.5" cy="-75.5" r="2.3"/>
			<circle id="XMLID_744_" class="st2" cx="1089" cy="237.8" r="1"/>
			<circle id="XMLID_743_" class="st2" cx="1355.5" cy="50.7" r="2.3"/>
			<circle id="XMLID_742_" class="st2" cx="1352.8" cy="-80.1" r="2.3"/>
			<circle id="XMLID_739_" class="st2" cx="2191.4" cy="-75.5" r="2.3"/>
			<circle id="XMLID_738_" class="st2" cx="1239.8" cy="180.6" r="2.3"/>
		</g>
		<circle id="XMLID_731_" class="st2" cx="2373.9" cy="212.5" r="1.1"/>
		<circle id="XMLID_727_" class="st2" cx="2353.1" cy="342.3" r="2.3"/>
		<circle id="XMLID_726_" class="st2" cx="2520" cy="26.2" r="2.3"/>
		<circle id="XMLID_724_" class="st2" cx="2402.3" cy="-77.8" r="2.3"/>
		<circle id="XMLID_722_" class="st2" cx="2582.6" cy="-33.5" r="2.3"/>
		<circle id="XMLID_720_" class="st2" cx="2584.9" cy="288.4" r="2.3"/>
		<circle id="XMLID_706_" class="st2" cx="2509.3" cy="375" r="2.3"/>
		<circle id="XMLID_703_" class="st2" cx="797.6" cy="415.9" r="2.3"/>
		<circle id="XMLID_694_" class="st2" cx="929.6" cy="3.6" r="2.3"/>
		<circle id="XMLID_597_" class="st2" cx="824.7" cy="-35.1" r="0.9"/>
		<circle id="XMLID_585_" class="st2" cx="901.3" cy="325.6" r="2.3"/>
		<circle id="XMLID_584_" class="st2" cx="725.1" cy="-113.7" r="2.3"/>
		<circle id="XMLID_583_" class="st2" cx="799.9" cy="50.7" r="2.3"/>
		<circle id="XMLID_576_" class="st2" cx="729.6" cy="7.5" r="2.3"/>
	</g>
</g>
</svg>
