<?xml version="1.0" encoding="utf-8"?>
<!-- Generator: Adobe Illustrator 19.0.0, SVG Export Plug-In . SVG Version: 6.00 Build 0)  -->
<svg version="1.1" id="Layer_1" xmlns="http://www.w3.org/2000/svg" xmlns:xlink="http://www.w3.org/1999/xlink" x="0px" y="0px"
	 viewBox="692 -19.2 1980 879.1" style="enable-background:new 692 -19.2 1980 879.1;" xml:space="preserve">
<style type="text/css">
	.st0{opacity:0.3;fill:url(#SVGID_1_);enable-background:new    ;}
	.st1{opacity:0.3;fill:url(#SVGID_2_);enable-background:new    ;}
	.st2{opacity:0.2;fill:url(#SVGID_3_);enable-background:new    ;}
	.st3{opacity:0.7;}
	.st4{fill:#FFFFFF;}
	.st5{fill:url(#SVGID_4_);}
</style>
<g>
	<g>
		<g>
			
				<linearGradient id="SVGID_1_" gradientUnits="userSpaceOnUse" x1="491.3023" y1="924.9926" x2="1694.087" y2="924.9926" gradientTransform="matrix(1 0 0 -1.1067 0 1539.0289)">
				<stop  offset="0" style="stop-color:#00A994"/>
				<stop  offset="0" style="stop-color:#3C3794"/>
				<stop  offset="0.5056" style="stop-color:#A43593"/>
				<stop  offset="1" style="stop-color:#DA2128"/>
			</linearGradient>
			<path class="st0" d="M525.2,521.1c-41.2-50.5-46.4-130.1-7-182.1c39.4-52.1,142.7-104.5,200.2-48.3c38,37.2,64.9,74.3,119,82.9
				c94.9,15,189-63.8,282.5-40.2c73,18.5,122.1,91.1,173.2,145.9c54.5,58.4,132.5,89.5,208.1,81.6c46.1-4.9,94.8-41,142-31.6
				c40.7,8.1,61,52.7,45.9,91c-28.8,73.4-158.1,106.9-225.3,127.6c-65.4,20.1-136.2,20.2-203.1,8c-98.7-18.1-190.8-60.9-282.8-100.7
				s-187.2-77.4-287.3-83.8c-44-2.8-90.6,0-129.6-20.7C547.2,543.4,535.1,533.2,525.2,521.1z"/>
		</g>
		<g>
			
				<linearGradient id="SVGID_2_" gradientUnits="userSpaceOnUse" x1="3949.8096" y1="4018.2407" x2="4501.1304" y2="3051.6389" gradientTransform="matrix(0.8875 0.4609 0.4609 -0.8875 -3287.5288 1326.6805)">
				<stop  offset="0" style="stop-color:#7E1B4C"/>
				<stop  offset="0.1471" style="stop-color:#74175D"/>
				<stop  offset="0.7257" style="stop-color:#4E069B"/>
				<stop  offset="1" style="stop-color:#3F00B4"/>
			</linearGradient>
			<path class="st1" d="M2263.9,250.9c3.2,29.6,11.7,57.4,11.5,87.5c-0.2,27.3-6.4,54.1-7.9,81.5c-0.9,16.1-8.2,30.3-10,45.9
				c-1.7,14.8,1.8,31.8,1.2,46.9c-1.4,37.4-7,74.7-16.6,110.9c-43.7-4.1-83.6-36-97.1-77.8c-9.9-30.3-6.5-63.3-12.5-94.6
				c-8.3-43.1-36-81.4-72.7-105c-39.8-25.6-84.3-23.2-122-55c-35.2-29.6-46.5-87.6-10.5-127.9c39.9-44.6,108.1-36.7,144-91.8
				c27.4-42.1,50.1-92.2,102.9-101.1c32.1-5.4,65.3,11.8,86.3,34.4c27.1,29.1,16.9,60.3,10.7,98.2
				C2263,153.3,2258.4,200.8,2263.9,250.9z"/>
		</g>
		<g>
			
				<linearGradient id="SVGID_3_" gradientUnits="userSpaceOnUse" x1="1916.8508" y1="432.7003" x2="2851.7893" y2="432.7003" gradientTransform="matrix(0.5244 -0.8514 -0.8514 -0.5244 706.9435 2767.1057)">
				<stop  offset="0" style="stop-color:#021652"/>
				<stop  offset="0.3106" style="stop-color:#0056AD"/>
				<stop  offset="0.7223" style="stop-color:#38C4DD"/>
				<stop  offset="1" style="stop-color:#68EFD8"/>
			</linearGradient>
			<path class="st2" d="M1273,510.2c17.6,15.8,35.2,31.7,52.7,47.5c53.2,48,87.9,108.9,163,126.8c99,23.5,203.1-36.5,302.7-15.5
				c107.6,22.7,176,131.4,278,172.6c80.8,32.6,174,18.5,253.8-16.3c72-31.4,140.1-83.6,166.2-157.7c26.1-74.1-4.6-170.7-78.5-197.2
				c-88.2-31.7-183.7,43.4-276.1,27.3c-101.9-17.7-160.9-137.8-262.4-157.9c-108.7-21.6-232.4,78.9-323.3,15.4
				c-36.3-25.3-61.4-75.5-85.6-111.8c-54.8-82.1-109.9-167.9-212.8-192.6c-81-19.4-171,3.4-233,59.1
				c-55.4,49.7-86.1,119.3-132.6,176.3c-52.3,64.2-126.2,99.4-206.2,117.3c-13.3,3-27.9,5.7-36.7,16.1c-9,10.7-9,26-8.6,40
				c0.2,5.2,0.7,11.1,4.9,14.2c2.8,2,6.4,2.2,9.9,2.3c62.5,1.4,116.3-17.6,173.8-39.2c51.2-19.2,96.4-50.8,148.3-69.1
				c46.9-16.6,114.1-27.5,154.1,8.5C1174,421,1223.5,465.6,1273,510.2z"/>
		</g>
	</g>
	<g class="st3">
		<g id="звёзды_1_">
			<circle id="XMLID_926_" class="st4" cx="2028" cy="186.6" r="2.3"/>
			<circle id="XMLID_925_" class="st4" cx="1976.8" cy="210" r="2.3"/>
			<circle id="XMLID_924_" class="st4" cx="2254" cy="602.6" r="2.3"/>
			<circle id="XMLID_923_" class="st4" cx="1597.9" cy="138.6" r="1.1"/>
			<circle id="XMLID_922_" class="st4" cx="1162.8" cy="249.4" r="2.3"/>
			<circle id="XMLID_920_" class="st4" cx="2204.8" cy="428.7" r="2.3"/>
			<circle id="XMLID_919_" class="st4" cx="2109.4" cy="291.9" r="1.4"/>
			<circle id="XMLID_918_" class="st4" cx="2296.5" cy="254" r="2.3"/>
			<circle id="XMLID_748_" class="st4" cx="2236.3" cy="483.6" r="2.3"/>
			<circle id="XMLID_746_" class="st4" cx="1939.7" cy="291.9" r="2.3"/>
			<circle id="XMLID_745_" class="st4" cx="1872" cy="118.8" r="2.3"/>
			<circle id="XMLID_744_" class="st4" cx="1117" cy="481.3" r="1"/>
			<circle id="XMLID_743_" class="st4" cx="1383.5" cy="294.2" r="2.3"/>
			<circle id="XMLID_742_" class="st4" cx="1380.8" cy="163.4" r="2.3"/>
			<circle id="XMLID_739_" class="st4" cx="2219.4" cy="168" r="2.3"/>
			<circle id="XMLID_738_" class="st4" cx="1267.8" cy="424.1" r="2.3"/>
		</g>
		<circle id="XMLID_731_" class="st4" cx="2401.9" cy="456" r="1.1"/>
		<circle id="XMLID_727_" class="st4" cx="2381.1" cy="585.8" r="2.3"/>
		<circle id="XMLID_726_" class="st4" cx="2548" cy="269.7" r="2.3"/>
		<circle id="XMLID_724_" class="st4" cx="2430.3" cy="165.7" r="2.3"/>
		<circle id="XMLID_722_" class="st4" cx="2610.6" cy="210" r="2.3"/>
		<circle id="XMLID_720_" class="st4" cx="2612.9" cy="531.9" r="2.3"/>
		<circle id="XMLID_706_" class="st4" cx="2537.3" cy="618.5" r="2.3"/>
		<circle id="XMLID_703_" class="st4" cx="825.6" cy="659.4" r="2.3"/>
		<circle id="XMLID_694_" class="st4" cx="957.6" cy="247.1" r="2.3"/>
		<circle id="XMLID_597_" class="st4" cx="852.7" cy="208.4" r="0.9"/>
		<circle id="XMLID_585_" class="st4" cx="929.3" cy="569.1" r="2.3"/>
		<circle id="XMLID_584_" class="st4" cx="753.1" cy="129.8" r="2.3"/>
		<circle id="XMLID_583_" class="st4" cx="827.9" cy="294.2" r="2.3"/>
		<circle id="XMLID_576_" class="st4" cx="757.6" cy="251" r="2.3"/>
	</g>
	
		<linearGradient id="SVGID_4_" gradientUnits="userSpaceOnUse" x1="1546.1862" y1="1009.2604" x2="1812.4413" y2="-227.1846" gradientTransform="matrix(1 0 0 -1 0 839.4701)">
		<stop  offset="0" style="stop-color:#371B4C"/>
		<stop  offset="5.408452e-002" style="stop-color:#38215D"/>
		<stop  offset="0.2668" style="stop-color:#3D379B"/>
		<stop  offset="0.3676" style="stop-color:#3F40B4"/>
		<stop  offset="1" style="stop-color:#FB79B1"/>
	</linearGradient>
	<polygon class="st5" points="544.6,95.3 2794,58.7 2794,798.7 544.6,745.3 	"/>
</g>
</svg>
